<mxfile host="app.diagrams.net" modified="2023-10-22T21:50:01.011Z" agent="Mozilla/5.0 (Windows NT 10.0; Win64; x64) AppleWebKit/537.36 (KHTML, like Gecko) Chrome/118.0.0.0 Safari/537.36" etag="SYon6aD2dfVte0RCZ_GR" version="22.0.6" type="device">
  <diagram name="Página-1" id="HJTgQ_LM5Ps0q5AZ5Ean">
    <mxGraphModel dx="1434" dy="790" grid="1" gridSize="10" guides="1" tooltips="1" connect="1" arrows="1" fold="1" page="1" pageScale="1" pageWidth="827" pageHeight="1169" math="0" shadow="0">
      <root>
        <mxCell id="0" />
        <mxCell id="1" parent="0" />
        <mxCell id="4uu6YenV0fNX0YMdC6CH-5" style="edgeStyle=orthogonalEdgeStyle;rounded=0;orthogonalLoop=1;jettySize=auto;html=1;entryX=0.5;entryY=0;entryDx=0;entryDy=0;endArrow=none;endFill=0;" edge="1" parent="1" source="4uu6YenV0fNX0YMdC6CH-2" target="4uu6YenV0fNX0YMdC6CH-4">
          <mxGeometry relative="1" as="geometry" />
        </mxCell>
        <mxCell id="4uu6YenV0fNX0YMdC6CH-2" value="Elementos de coste" style="rounded=0;whiteSpace=wrap;html=1;" vertex="1" parent="1">
          <mxGeometry x="660" y="570" width="120" height="60" as="geometry" />
        </mxCell>
        <mxCell id="4uu6YenV0fNX0YMdC6CH-6" style="edgeStyle=orthogonalEdgeStyle;rounded=0;orthogonalLoop=1;jettySize=auto;html=1;exitX=0;exitY=0.5;exitDx=0;exitDy=0;entryX=0.5;entryY=1;entryDx=0;entryDy=0;endArrow=none;endFill=0;" edge="1" parent="1" source="4uu6YenV0fNX0YMdC6CH-4" target="4uu6YenV0fNX0YMdC6CH-2">
          <mxGeometry relative="1" as="geometry" />
        </mxCell>
        <mxCell id="4uu6YenV0fNX0YMdC6CH-4" value="tiene" style="rhombus;whiteSpace=wrap;html=1;" vertex="1" parent="1">
          <mxGeometry x="840" y="670" width="50" height="45" as="geometry" />
        </mxCell>
        <mxCell id="4uu6YenV0fNX0YMdC6CH-7" value="1:N" style="text;html=1;strokeColor=none;fillColor=none;align=center;verticalAlign=middle;whiteSpace=wrap;rounded=0;" vertex="1" parent="1">
          <mxGeometry x="767" y="570" width="60" height="30" as="geometry" />
        </mxCell>
        <mxCell id="4uu6YenV0fNX0YMdC6CH-8" value="1:1" style="text;html=1;strokeColor=none;fillColor=none;align=center;verticalAlign=middle;whiteSpace=wrap;rounded=0;" vertex="1" parent="1">
          <mxGeometry x="680" y="630" width="60" height="30" as="geometry" />
        </mxCell>
        <mxCell id="4uu6YenV0fNX0YMdC6CH-9" value="1:N" style="text;html=1;strokeColor=none;fillColor=none;align=center;verticalAlign=middle;whiteSpace=wrap;rounded=0;" vertex="1" parent="1">
          <mxGeometry x="860" y="700" width="60" height="30" as="geometry" />
        </mxCell>
        <mxCell id="4uu6YenV0fNX0YMdC6CH-13" style="edgeStyle=orthogonalEdgeStyle;rounded=0;orthogonalLoop=1;jettySize=auto;html=1;entryX=0;entryY=0.5;entryDx=0;entryDy=0;endArrow=none;endFill=0;" edge="1" parent="1" source="4uu6YenV0fNX0YMdC6CH-10" target="4uu6YenV0fNX0YMdC6CH-12">
          <mxGeometry relative="1" as="geometry" />
        </mxCell>
        <mxCell id="4uu6YenV0fNX0YMdC6CH-62" style="edgeStyle=orthogonalEdgeStyle;rounded=0;orthogonalLoop=1;jettySize=auto;html=1;exitX=0.5;exitY=1;exitDx=0;exitDy=0;endArrow=none;endFill=0;" edge="1" parent="1" source="4uu6YenV0fNX0YMdC6CH-10" target="4uu6YenV0fNX0YMdC6CH-61">
          <mxGeometry relative="1" as="geometry" />
        </mxCell>
        <mxCell id="4uu6YenV0fNX0YMdC6CH-10" value="Empleado" style="rounded=0;whiteSpace=wrap;html=1;" vertex="1" parent="1">
          <mxGeometry x="200" y="180" width="120" height="60" as="geometry" />
        </mxCell>
        <mxCell id="4uu6YenV0fNX0YMdC6CH-23" style="edgeStyle=orthogonalEdgeStyle;rounded=0;orthogonalLoop=1;jettySize=auto;html=1;entryX=0;entryY=0.5;entryDx=0;entryDy=0;endArrow=none;endFill=0;" edge="1" parent="1" source="4uu6YenV0fNX0YMdC6CH-11" target="4uu6YenV0fNX0YMdC6CH-20">
          <mxGeometry relative="1" as="geometry" />
        </mxCell>
        <mxCell id="4uu6YenV0fNX0YMdC6CH-11" value="Justificante Nómina" style="rounded=0;whiteSpace=wrap;html=1;" vertex="1" parent="1">
          <mxGeometry x="490" y="180" width="120" height="60" as="geometry" />
        </mxCell>
        <mxCell id="4uu6YenV0fNX0YMdC6CH-14" style="edgeStyle=orthogonalEdgeStyle;rounded=0;orthogonalLoop=1;jettySize=auto;html=1;exitX=1;exitY=0.5;exitDx=0;exitDy=0;endArrow=none;endFill=0;" edge="1" parent="1" source="4uu6YenV0fNX0YMdC6CH-12" target="4uu6YenV0fNX0YMdC6CH-11">
          <mxGeometry relative="1" as="geometry" />
        </mxCell>
        <mxCell id="4uu6YenV0fNX0YMdC6CH-12" value="Tiene" style="rhombus;whiteSpace=wrap;html=1;" vertex="1" parent="1">
          <mxGeometry x="370" y="185" width="50" height="50" as="geometry" />
        </mxCell>
        <mxCell id="4uu6YenV0fNX0YMdC6CH-15" value="1:N" style="text;html=1;strokeColor=none;fillColor=none;align=center;verticalAlign=middle;whiteSpace=wrap;rounded=0;" vertex="1" parent="1">
          <mxGeometry x="300" y="180" width="60" height="30" as="geometry" />
        </mxCell>
        <mxCell id="4uu6YenV0fNX0YMdC6CH-16" value="1:1" style="text;html=1;strokeColor=none;fillColor=none;align=center;verticalAlign=middle;whiteSpace=wrap;rounded=0;" vertex="1" parent="1">
          <mxGeometry x="440" y="210" width="60" height="30" as="geometry" />
        </mxCell>
        <mxCell id="4uu6YenV0fNX0YMdC6CH-17" value="1:N" style="text;html=1;strokeColor=none;fillColor=none;align=center;verticalAlign=middle;whiteSpace=wrap;rounded=0;" vertex="1" parent="1">
          <mxGeometry x="365" y="150" width="60" height="30" as="geometry" />
        </mxCell>
        <mxCell id="4uu6YenV0fNX0YMdC6CH-33" style="edgeStyle=orthogonalEdgeStyle;rounded=0;orthogonalLoop=1;jettySize=auto;html=1;entryX=1;entryY=0.5;entryDx=0;entryDy=0;endArrow=none;endFill=0;" edge="1" parent="1" source="4uu6YenV0fNX0YMdC6CH-18" target="4uu6YenV0fNX0YMdC6CH-30">
          <mxGeometry relative="1" as="geometry" />
        </mxCell>
        <mxCell id="4uu6YenV0fNX0YMdC6CH-36" style="edgeStyle=orthogonalEdgeStyle;rounded=0;orthogonalLoop=1;jettySize=auto;html=1;entryX=0.5;entryY=0;entryDx=0;entryDy=0;endArrow=none;endFill=0;" edge="1" parent="1" source="4uu6YenV0fNX0YMdC6CH-18" target="4uu6YenV0fNX0YMdC6CH-35">
          <mxGeometry relative="1" as="geometry" />
        </mxCell>
        <mxCell id="4uu6YenV0fNX0YMdC6CH-18" value="Linea de justificante" style="rounded=0;whiteSpace=wrap;html=1;" vertex="1" parent="1">
          <mxGeometry x="660" y="310" width="120" height="60" as="geometry" />
        </mxCell>
        <mxCell id="4uu6YenV0fNX0YMdC6CH-24" style="edgeStyle=orthogonalEdgeStyle;rounded=0;orthogonalLoop=1;jettySize=auto;html=1;exitX=0.5;exitY=1;exitDx=0;exitDy=0;entryX=0.5;entryY=0;entryDx=0;entryDy=0;endArrow=none;endFill=0;" edge="1" parent="1" source="4uu6YenV0fNX0YMdC6CH-20" target="4uu6YenV0fNX0YMdC6CH-18">
          <mxGeometry relative="1" as="geometry" />
        </mxCell>
        <mxCell id="4uu6YenV0fNX0YMdC6CH-20" value="tiene" style="rhombus;whiteSpace=wrap;html=1;" vertex="1" parent="1">
          <mxGeometry x="695" y="185" width="50" height="50" as="geometry" />
        </mxCell>
        <mxCell id="4uu6YenV0fNX0YMdC6CH-25" value="1:N" style="text;html=1;strokeColor=none;fillColor=none;align=center;verticalAlign=middle;whiteSpace=wrap;rounded=0;" vertex="1" parent="1">
          <mxGeometry x="590" y="180" width="60" height="30" as="geometry" />
        </mxCell>
        <mxCell id="4uu6YenV0fNX0YMdC6CH-26" value="1:1" style="text;html=1;strokeColor=none;fillColor=none;align=center;verticalAlign=middle;whiteSpace=wrap;rounded=0;" vertex="1" parent="1">
          <mxGeometry x="670" y="280" width="60" height="30" as="geometry" />
        </mxCell>
        <mxCell id="4uu6YenV0fNX0YMdC6CH-27" value="1:N" style="text;html=1;strokeColor=none;fillColor=none;align=center;verticalAlign=middle;whiteSpace=wrap;rounded=0;" vertex="1" parent="1">
          <mxGeometry x="720" y="170" width="60" height="30" as="geometry" />
        </mxCell>
        <mxCell id="4uu6YenV0fNX0YMdC6CH-29" value="Concepto retributivo" style="rounded=0;whiteSpace=wrap;html=1;" vertex="1" parent="1">
          <mxGeometry x="500" y="450" width="120" height="60" as="geometry" />
        </mxCell>
        <mxCell id="4uu6YenV0fNX0YMdC6CH-32" style="edgeStyle=orthogonalEdgeStyle;rounded=0;orthogonalLoop=1;jettySize=auto;html=1;endArrow=none;endFill=0;" edge="1" parent="1" source="4uu6YenV0fNX0YMdC6CH-30" target="4uu6YenV0fNX0YMdC6CH-29">
          <mxGeometry relative="1" as="geometry" />
        </mxCell>
        <mxCell id="4uu6YenV0fNX0YMdC6CH-30" value="tiene" style="rhombus;whiteSpace=wrap;html=1;" vertex="1" parent="1">
          <mxGeometry x="535" y="315" width="50" height="50" as="geometry" />
        </mxCell>
        <mxCell id="4uu6YenV0fNX0YMdC6CH-37" style="edgeStyle=orthogonalEdgeStyle;rounded=0;orthogonalLoop=1;jettySize=auto;html=1;exitX=0.5;exitY=1;exitDx=0;exitDy=0;entryX=0.5;entryY=0;entryDx=0;entryDy=0;endArrow=none;endFill=0;" edge="1" parent="1" source="4uu6YenV0fNX0YMdC6CH-35" target="4uu6YenV0fNX0YMdC6CH-2">
          <mxGeometry relative="1" as="geometry" />
        </mxCell>
        <mxCell id="4uu6YenV0fNX0YMdC6CH-35" value="tiene" style="rhombus;whiteSpace=wrap;html=1;" vertex="1" parent="1">
          <mxGeometry x="695" y="450" width="50" height="50" as="geometry" />
        </mxCell>
        <mxCell id="4uu6YenV0fNX0YMdC6CH-38" value="&lt;u&gt;Nº Matricula&lt;/u&gt;" style="ellipse;whiteSpace=wrap;html=1;" vertex="1" parent="1">
          <mxGeometry x="35" y="80" width="80" height="50" as="geometry" />
        </mxCell>
        <mxCell id="4uu6YenV0fNX0YMdC6CH-39" value="Nombre" style="ellipse;whiteSpace=wrap;html=1;" vertex="1" parent="1">
          <mxGeometry x="40" y="200" width="70" height="30" as="geometry" />
        </mxCell>
        <mxCell id="4uu6YenV0fNX0YMdC6CH-54" style="edgeStyle=orthogonalEdgeStyle;rounded=0;orthogonalLoop=1;jettySize=auto;html=1;entryX=0;entryY=0.5;entryDx=0;entryDy=0;endArrow=none;endFill=0;" edge="1" parent="1" source="4uu6YenV0fNX0YMdC6CH-40" target="4uu6YenV0fNX0YMdC6CH-10">
          <mxGeometry relative="1" as="geometry" />
        </mxCell>
        <mxCell id="4uu6YenV0fNX0YMdC6CH-40" value="Nº hijos" style="ellipse;whiteSpace=wrap;html=1;" vertex="1" parent="1">
          <mxGeometry x="40" y="250" width="70" height="25" as="geometry" />
        </mxCell>
        <mxCell id="4uu6YenV0fNX0YMdC6CH-41" value="Porcentaje retencion hacienda" style="ellipse;whiteSpace=wrap;html=1;" vertex="1" parent="1">
          <mxGeometry x="27.5" y="290" width="95" height="50" as="geometry" />
        </mxCell>
        <mxCell id="4uu6YenV0fNX0YMdC6CH-55" style="edgeStyle=orthogonalEdgeStyle;rounded=0;orthogonalLoop=1;jettySize=auto;html=1;entryX=0;entryY=0.25;entryDx=0;entryDy=0;endArrow=none;endFill=0;" edge="1" parent="1" source="4uu6YenV0fNX0YMdC6CH-42" target="4uu6YenV0fNX0YMdC6CH-10">
          <mxGeometry relative="1" as="geometry" />
        </mxCell>
        <mxCell id="4uu6YenV0fNX0YMdC6CH-42" value="NIF" style="ellipse;whiteSpace=wrap;html=1;" vertex="1" parent="1">
          <mxGeometry x="45" y="140" width="60" height="30" as="geometry" />
        </mxCell>
        <mxCell id="4uu6YenV0fNX0YMdC6CH-43" value="Cuenta corriente (banco sucursal, Nº cuenta)" style="ellipse;whiteSpace=wrap;html=1;" vertex="1" parent="1">
          <mxGeometry x="25" y="360" width="100" height="60" as="geometry" />
        </mxCell>
        <mxCell id="4uu6YenV0fNX0YMdC6CH-52" style="edgeStyle=orthogonalEdgeStyle;rounded=0;orthogonalLoop=1;jettySize=auto;html=1;entryX=0.017;entryY=0.4;entryDx=0;entryDy=0;entryPerimeter=0;endArrow=none;endFill=0;" edge="1" parent="1" source="4uu6YenV0fNX0YMdC6CH-39" target="4uu6YenV0fNX0YMdC6CH-10">
          <mxGeometry relative="1" as="geometry" />
        </mxCell>
        <mxCell id="4uu6YenV0fNX0YMdC6CH-56" style="edgeStyle=orthogonalEdgeStyle;rounded=0;orthogonalLoop=1;jettySize=auto;html=1;entryX=0.075;entryY=-0.033;entryDx=0;entryDy=0;entryPerimeter=0;endArrow=none;endFill=0;" edge="1" parent="1" source="4uu6YenV0fNX0YMdC6CH-38" target="4uu6YenV0fNX0YMdC6CH-10">
          <mxGeometry relative="1" as="geometry" />
        </mxCell>
        <mxCell id="4uu6YenV0fNX0YMdC6CH-58" style="edgeStyle=orthogonalEdgeStyle;rounded=0;orthogonalLoop=1;jettySize=auto;html=1;entryX=0.192;entryY=1;entryDx=0;entryDy=0;entryPerimeter=0;endArrow=none;endFill=0;" edge="1" parent="1" source="4uu6YenV0fNX0YMdC6CH-43" target="4uu6YenV0fNX0YMdC6CH-10">
          <mxGeometry relative="1" as="geometry">
            <Array as="points">
              <mxPoint x="220" y="390" />
              <mxPoint x="220" y="240" />
            </Array>
          </mxGeometry>
        </mxCell>
        <mxCell id="4uu6YenV0fNX0YMdC6CH-59" style="edgeStyle=orthogonalEdgeStyle;rounded=0;orthogonalLoop=1;jettySize=auto;html=1;entryX=0.075;entryY=1;entryDx=0;entryDy=0;entryPerimeter=0;endArrow=none;endFill=0;" edge="1" parent="1" source="4uu6YenV0fNX0YMdC6CH-41" target="4uu6YenV0fNX0YMdC6CH-10">
          <mxGeometry relative="1" as="geometry" />
        </mxCell>
        <mxCell id="4uu6YenV0fNX0YMdC6CH-60" value="Departamento" style="rounded=0;whiteSpace=wrap;html=1;" vertex="1" parent="1">
          <mxGeometry x="200" y="430" width="120" height="60" as="geometry" />
        </mxCell>
        <mxCell id="4uu6YenV0fNX0YMdC6CH-63" style="edgeStyle=orthogonalEdgeStyle;rounded=0;orthogonalLoop=1;jettySize=auto;html=1;exitX=0.5;exitY=1;exitDx=0;exitDy=0;endArrow=none;endFill=0;" edge="1" parent="1" source="4uu6YenV0fNX0YMdC6CH-61" target="4uu6YenV0fNX0YMdC6CH-60">
          <mxGeometry relative="1" as="geometry" />
        </mxCell>
        <mxCell id="4uu6YenV0fNX0YMdC6CH-61" value="trabaja" style="rhombus;whiteSpace=wrap;html=1;" vertex="1" parent="1">
          <mxGeometry x="235" y="310" width="50" height="50" as="geometry" />
        </mxCell>
        <mxCell id="4uu6YenV0fNX0YMdC6CH-64" value="1:N" style="text;html=1;strokeColor=none;fillColor=none;align=center;verticalAlign=middle;whiteSpace=wrap;rounded=0;" vertex="1" parent="1">
          <mxGeometry x="250" y="235" width="60" height="30" as="geometry" />
        </mxCell>
        <mxCell id="4uu6YenV0fNX0YMdC6CH-65" value="1:N" style="text;html=1;strokeColor=none;fillColor=none;align=center;verticalAlign=middle;whiteSpace=wrap;rounded=0;" vertex="1" parent="1">
          <mxGeometry x="250" y="400" width="60" height="30" as="geometry" />
        </mxCell>
        <mxCell id="4uu6YenV0fNX0YMdC6CH-69" style="edgeStyle=orthogonalEdgeStyle;rounded=0;orthogonalLoop=1;jettySize=auto;html=1;entryX=1;entryY=0.5;entryDx=0;entryDy=0;endArrow=none;endFill=0;" edge="1" parent="1" source="4uu6YenV0fNX0YMdC6CH-66" target="4uu6YenV0fNX0YMdC6CH-61">
          <mxGeometry relative="1" as="geometry" />
        </mxCell>
        <mxCell id="4uu6YenV0fNX0YMdC6CH-66" value="Fecha" style="ellipse;whiteSpace=wrap;html=1;" vertex="1" parent="1">
          <mxGeometry x="360" y="350" width="50" height="25" as="geometry" />
        </mxCell>
        <mxCell id="4uu6YenV0fNX0YMdC6CH-68" style="edgeStyle=orthogonalEdgeStyle;rounded=0;orthogonalLoop=1;jettySize=auto;html=1;entryX=1;entryY=0.5;entryDx=0;entryDy=0;endArrow=none;endFill=0;" edge="1" parent="1" source="4uu6YenV0fNX0YMdC6CH-67" target="4uu6YenV0fNX0YMdC6CH-61">
          <mxGeometry relative="1" as="geometry" />
        </mxCell>
        <mxCell id="4uu6YenV0fNX0YMdC6CH-67" value="Funcion" style="ellipse;whiteSpace=wrap;html=1;" vertex="1" parent="1">
          <mxGeometry x="360" y="310" width="50" height="25" as="geometry" />
        </mxCell>
        <mxCell id="4uu6YenV0fNX0YMdC6CH-70" value="N:M" style="text;html=1;strokeColor=none;fillColor=none;align=center;verticalAlign=middle;whiteSpace=wrap;rounded=0;" vertex="1" parent="1">
          <mxGeometry x="260" y="310" width="60" height="30" as="geometry" />
        </mxCell>
        <mxCell id="4uu6YenV0fNX0YMdC6CH-72" style="edgeStyle=orthogonalEdgeStyle;rounded=0;orthogonalLoop=1;jettySize=auto;html=1;endArrow=none;endFill=0;" edge="1" parent="1" source="4uu6YenV0fNX0YMdC6CH-71" target="4uu6YenV0fNX0YMdC6CH-60">
          <mxGeometry relative="1" as="geometry" />
        </mxCell>
        <mxCell id="4uu6YenV0fNX0YMdC6CH-71" value="Nombre" style="ellipse;whiteSpace=wrap;html=1;" vertex="1" parent="1">
          <mxGeometry x="230" y="530" width="60" height="25" as="geometry" />
        </mxCell>
        <mxCell id="4uu6YenV0fNX0YMdC6CH-76" style="edgeStyle=orthogonalEdgeStyle;rounded=0;orthogonalLoop=1;jettySize=auto;html=1;endArrow=none;endFill=0;" edge="1" parent="1" source="4uu6YenV0fNX0YMdC6CH-73" target="4uu6YenV0fNX0YMdC6CH-11">
          <mxGeometry relative="1" as="geometry" />
        </mxCell>
        <mxCell id="4uu6YenV0fNX0YMdC6CH-73" value="&lt;u&gt;Numero de orden&lt;/u&gt;" style="ellipse;whiteSpace=wrap;html=1;" vertex="1" parent="1">
          <mxGeometry x="435" y="80" width="70" height="40" as="geometry" />
        </mxCell>
        <mxCell id="4uu6YenV0fNX0YMdC6CH-77" style="edgeStyle=orthogonalEdgeStyle;rounded=0;orthogonalLoop=1;jettySize=auto;html=1;endArrow=none;endFill=0;" edge="1" parent="1" source="4uu6YenV0fNX0YMdC6CH-74">
          <mxGeometry relative="1" as="geometry">
            <mxPoint x="540" y="150" as="targetPoint" />
          </mxGeometry>
        </mxCell>
        <mxCell id="4uu6YenV0fNX0YMdC6CH-74" value="&lt;u&gt;Ejercicio fiscal&lt;/u&gt;" style="ellipse;whiteSpace=wrap;html=1;" vertex="1" parent="1">
          <mxGeometry x="505" y="75" width="70" height="45" as="geometry" />
        </mxCell>
        <mxCell id="4uu6YenV0fNX0YMdC6CH-78" style="edgeStyle=orthogonalEdgeStyle;rounded=0;orthogonalLoop=1;jettySize=auto;html=1;entryX=0.5;entryY=0;entryDx=0;entryDy=0;endArrow=none;endFill=0;" edge="1" parent="1" source="4uu6YenV0fNX0YMdC6CH-75" target="4uu6YenV0fNX0YMdC6CH-11">
          <mxGeometry relative="1" as="geometry" />
        </mxCell>
        <mxCell id="4uu6YenV0fNX0YMdC6CH-75" value="&lt;u&gt;mes&lt;/u&gt;" style="ellipse;whiteSpace=wrap;html=1;" vertex="1" parent="1">
          <mxGeometry x="575" y="77.5" width="70" height="45" as="geometry" />
        </mxCell>
        <mxCell id="4uu6YenV0fNX0YMdC6CH-104" style="edgeStyle=orthogonalEdgeStyle;rounded=0;orthogonalLoop=1;jettySize=auto;html=1;endArrow=none;endFill=0;" edge="1" parent="1" source="4uu6YenV0fNX0YMdC6CH-79">
          <mxGeometry relative="1" as="geometry">
            <mxPoint x="780" y="340" as="targetPoint" />
          </mxGeometry>
        </mxCell>
        <mxCell id="4uu6YenV0fNX0YMdC6CH-79" value="Cantidad (Positivo para ingreso, negativo para descuento)" style="ellipse;whiteSpace=wrap;html=1;" vertex="1" parent="1">
          <mxGeometry x="811.75" y="220" width="111.5" height="90" as="geometry" />
        </mxCell>
        <mxCell id="4uu6YenV0fNX0YMdC6CH-84" style="edgeStyle=orthogonalEdgeStyle;rounded=0;orthogonalLoop=1;jettySize=auto;html=1;exitX=1;exitY=1;exitDx=0;exitDy=0;" edge="1" parent="1" source="4uu6YenV0fNX0YMdC6CH-80">
          <mxGeometry relative="1" as="geometry">
            <mxPoint x="890" y="351" as="targetPoint" />
          </mxGeometry>
        </mxCell>
        <mxCell id="4uu6YenV0fNX0YMdC6CH-100" style="edgeStyle=orthogonalEdgeStyle;rounded=0;orthogonalLoop=1;jettySize=auto;html=1;endArrow=none;endFill=0;" edge="1" parent="1" source="4uu6YenV0fNX0YMdC6CH-80">
          <mxGeometry relative="1" as="geometry">
            <mxPoint x="780" y="340" as="targetPoint" />
          </mxGeometry>
        </mxCell>
        <mxCell id="4uu6YenV0fNX0YMdC6CH-80" value="Tipo(ingreso o descuento)" style="ellipse;whiteSpace=wrap;html=1;" vertex="1" parent="1">
          <mxGeometry x="835" y="312.5" width="85" height="55" as="geometry" />
        </mxCell>
        <mxCell id="4uu6YenV0fNX0YMdC6CH-101" style="edgeStyle=orthogonalEdgeStyle;rounded=0;orthogonalLoop=1;jettySize=auto;html=1;entryX=1;entryY=0.75;entryDx=0;entryDy=0;endArrow=none;endFill=0;" edge="1" parent="1" source="4uu6YenV0fNX0YMdC6CH-81" target="4uu6YenV0fNX0YMdC6CH-18">
          <mxGeometry relative="1" as="geometry" />
        </mxCell>
        <mxCell id="4uu6YenV0fNX0YMdC6CH-81" value="Base (descuento)" style="ellipse;whiteSpace=wrap;html=1;" vertex="1" parent="1">
          <mxGeometry x="828.5" y="370" width="80" height="47.5" as="geometry" />
        </mxCell>
        <mxCell id="4uu6YenV0fNX0YMdC6CH-99" style="edgeStyle=orthogonalEdgeStyle;rounded=0;orthogonalLoop=1;jettySize=auto;html=1;exitX=0;exitY=0.5;exitDx=0;exitDy=0;endArrow=none;endFill=0;" edge="1" parent="1" source="4uu6YenV0fNX0YMdC6CH-82">
          <mxGeometry relative="1" as="geometry">
            <mxPoint x="780" y="340" as="targetPoint" />
          </mxGeometry>
        </mxCell>
        <mxCell id="4uu6YenV0fNX0YMdC6CH-82" value="&lt;u&gt;Nº Linea&lt;/u&gt;" style="ellipse;whiteSpace=wrap;html=1;" vertex="1" parent="1">
          <mxGeometry x="800" y="185" width="70" height="32.5" as="geometry" />
        </mxCell>
        <mxCell id="4uu6YenV0fNX0YMdC6CH-105" style="edgeStyle=orthogonalEdgeStyle;rounded=0;orthogonalLoop=1;jettySize=auto;html=1;entryX=1;entryY=1;entryDx=0;entryDy=0;endArrow=none;endFill=0;" edge="1" parent="1" source="4uu6YenV0fNX0YMdC6CH-83" target="4uu6YenV0fNX0YMdC6CH-18">
          <mxGeometry relative="1" as="geometry" />
        </mxCell>
        <mxCell id="4uu6YenV0fNX0YMdC6CH-83" value="Porcentaje (descuento)" style="ellipse;whiteSpace=wrap;html=1;" vertex="1" parent="1">
          <mxGeometry x="823.5" y="420" width="85" height="52.5" as="geometry" />
        </mxCell>
        <mxCell id="4uu6YenV0fNX0YMdC6CH-88" style="edgeStyle=orthogonalEdgeStyle;rounded=0;orthogonalLoop=1;jettySize=auto;html=1;endArrow=none;endFill=0;" edge="1" parent="1" source="4uu6YenV0fNX0YMdC6CH-86" target="4uu6YenV0fNX0YMdC6CH-29">
          <mxGeometry relative="1" as="geometry" />
        </mxCell>
        <mxCell id="4uu6YenV0fNX0YMdC6CH-86" value="&lt;u&gt;Código&lt;/u&gt;" style="ellipse;whiteSpace=wrap;html=1;" vertex="1" parent="1">
          <mxGeometry x="390" y="443.75" width="70" height="32.5" as="geometry" />
        </mxCell>
        <mxCell id="4uu6YenV0fNX0YMdC6CH-89" style="edgeStyle=orthogonalEdgeStyle;rounded=0;orthogonalLoop=1;jettySize=auto;html=1;endArrow=none;endFill=0;" edge="1" parent="1" source="4uu6YenV0fNX0YMdC6CH-87">
          <mxGeometry relative="1" as="geometry">
            <mxPoint x="490" y="480" as="targetPoint" />
          </mxGeometry>
        </mxCell>
        <mxCell id="4uu6YenV0fNX0YMdC6CH-87" value="Descripción" style="ellipse;whiteSpace=wrap;html=1;" vertex="1" parent="1">
          <mxGeometry x="390" y="477.5" width="70" height="32.5" as="geometry" />
        </mxCell>
        <mxCell id="4uu6YenV0fNX0YMdC6CH-93" style="edgeStyle=orthogonalEdgeStyle;rounded=0;orthogonalLoop=1;jettySize=auto;html=1;entryX=0;entryY=0.5;entryDx=0;entryDy=0;endArrow=none;endFill=0;" edge="1" parent="1" source="4uu6YenV0fNX0YMdC6CH-90" target="4uu6YenV0fNX0YMdC6CH-2">
          <mxGeometry relative="1" as="geometry" />
        </mxCell>
        <mxCell id="4uu6YenV0fNX0YMdC6CH-90" value="Código" style="ellipse;whiteSpace=wrap;html=1;" vertex="1" parent="1">
          <mxGeometry x="540" y="550" width="70" height="32.5" as="geometry" />
        </mxCell>
        <mxCell id="4uu6YenV0fNX0YMdC6CH-94" style="edgeStyle=orthogonalEdgeStyle;rounded=0;orthogonalLoop=1;jettySize=auto;html=1;endArrow=none;endFill=0;" edge="1" parent="1" source="4uu6YenV0fNX0YMdC6CH-91">
          <mxGeometry relative="1" as="geometry">
            <mxPoint x="650" y="600" as="targetPoint" />
          </mxGeometry>
        </mxCell>
        <mxCell id="4uu6YenV0fNX0YMdC6CH-91" value="Descripción" style="ellipse;whiteSpace=wrap;html=1;" vertex="1" parent="1">
          <mxGeometry x="540" y="590" width="70" height="32.5" as="geometry" />
        </mxCell>
        <mxCell id="4uu6YenV0fNX0YMdC6CH-95" style="edgeStyle=orthogonalEdgeStyle;rounded=0;orthogonalLoop=1;jettySize=auto;html=1;endArrow=none;endFill=0;" edge="1" parent="1" source="4uu6YenV0fNX0YMdC6CH-92">
          <mxGeometry relative="1" as="geometry">
            <mxPoint x="640" y="600" as="targetPoint" />
          </mxGeometry>
        </mxCell>
        <mxCell id="4uu6YenV0fNX0YMdC6CH-92" value="Saldo" style="ellipse;whiteSpace=wrap;html=1;" vertex="1" parent="1">
          <mxGeometry x="540" y="630" width="70" height="32.5" as="geometry" />
        </mxCell>
        <mxCell id="4uu6YenV0fNX0YMdC6CH-106" value="1:1" style="text;html=1;strokeColor=none;fillColor=none;align=center;verticalAlign=middle;whiteSpace=wrap;rounded=0;" vertex="1" parent="1">
          <mxGeometry x="610" y="337.5" width="60" height="30" as="geometry" />
        </mxCell>
        <mxCell id="4uu6YenV0fNX0YMdC6CH-107" value="1:N" style="text;html=1;strokeColor=none;fillColor=none;align=center;verticalAlign=middle;whiteSpace=wrap;rounded=0;" vertex="1" parent="1">
          <mxGeometry x="550" y="417.5" width="60" height="30" as="geometry" />
        </mxCell>
        <mxCell id="4uu6YenV0fNX0YMdC6CH-108" value="1:N" style="text;html=1;strokeColor=none;fillColor=none;align=center;verticalAlign=middle;whiteSpace=wrap;rounded=0;" vertex="1" parent="1">
          <mxGeometry x="500" y="307.5" width="60" height="30" as="geometry" />
        </mxCell>
      </root>
    </mxGraphModel>
  </diagram>
</mxfile>
